<svg width="24" height="24" viewBox="0 0 24 24" fill="none" xmlns="http://www.w3.org/2000/svg">
<path d="M8.49994 4.00006H5.49994C4.67151 4.00006 3.99994 4.67163 3.99994 5.50006V9.50006C3.99994 10.3285 4.67151 11.0001 5.49994 11.0001H8.49994C9.32837 11.0001 9.99994 10.3285 9.99994 9.50006V5.50006C9.99994 4.67163 9.32837 4.00006 8.49994 4.00006Z" stroke="#968E86" stroke-width="2" stroke-linejoin="round"/>
<path d="M18.4999 4.00006H15.4999C14.6715 4.00006 13.9999 4.67163 13.9999 5.50006V6.50006C13.9999 7.32849 14.6715 8.00006 15.4999 8.00006H18.4999C19.3283 8.00006 19.9999 7.32849 19.9999 6.50006V5.50006C19.9999 4.67163 19.3283 4.00006 18.4999 4.00006Z" stroke="#968E86" stroke-width="2" stroke-linejoin="round"/>
<path d="M18.4999 12.0001H15.4999C14.6715 12.0001 13.9999 12.6716 13.9999 13.5001V18.5001C13.9999 19.3285 14.6715 20.0001 15.4999 20.0001H18.4999C19.3283 20.0001 19.9999 19.3285 19.9999 18.5001V13.5001C19.9999 12.6716 19.3283 12.0001 18.4999 12.0001Z" stroke="#968E86" stroke-width="2" stroke-linejoin="round"/>
<path d="M8.49994 15.0001H5.49994C4.67151 15.0001 3.99994 15.6716 3.99994 16.5001V18.5001C3.99994 19.3285 4.67151 20.0001 5.49994 20.0001H8.49994C9.32837 20.0001 9.99994 19.3285 9.99994 18.5001V16.5001C9.99994 15.6716 9.32837 15.0001 8.49994 15.0001Z" stroke="#968E86" stroke-width="2" stroke-linejoin="round"/>
</svg>
